<?xml version="1.0" encoding="UTF-8"?>
<svg width="500px" height="219px" viewBox="0 0 500 219" version="1.1" xmlns="http://www.w3.org/2000/svg" xmlns:xlink="http://www.w3.org/1999/xlink">
    <!-- Generator: Sketch 40.1 (33804) - http://www.bohemiancoding.com/sketch -->
    <title>CRS-logo</title>
    <desc>Created with Sketch.</desc>
    <defs></defs>
    <g id="Page-1" stroke="none" stroke-width="1" fill="none" fill-rule="evenodd">
        <path d="M132.460883,146.88785 L132.777293,147.520694 C128.488154,165.80294 121.175632,179.619891 110.839509,188.971963 C100.503386,198.324034 86.5463133,203 68.9678726,203 C52.0222558,203 38.4519032,197.040781 28.2564076,185.122163 C18.060912,173.203545 14.7913711,158.173655 18.4476867,140.032043 L24.8813638,107.967957 C28.8892483,87.8574873 36.6763807,72.3353907 48.2429947,61.4012016 C59.8096086,50.4670125 74.1358229,45 91.2220672,45 C108.65988,45 122.072029,50.0626997 131.458917,60.188251 C140.845804,70.3138023 144.379018,84.0604383 142.058663,101.428571 L141.847723,101.955941 L107.358995,101.955941 C109.046525,92.1116553 108.413711,84.7285515 105.460533,79.8064085 C102.507355,74.8842656 96.7065565,72.423231 88.0579637,72.423231 C81.5890976,72.423231 75.8410337,75.6753124 70.8135997,82.1795728 C65.7861656,88.6838331 62.2177957,97.2095601 60.1083828,107.757009 L53.6747057,140.032043 C51.3543515,151.423288 51.6883369,160.195118 54.6766718,166.347797 C57.6650067,172.500476 63.0966634,175.576769 70.9718048,175.576769 C78.1438086,175.576769 83.9094507,173.221207 88.268904,168.510013 C92.6283572,163.798819 95.9330545,156.591504 98.1830949,146.88785 L132.460883,146.88785 Z M186.672523,141.930574 L174.96534,200.785047 L139.527381,200.785047 L170.219185,47.2149533 L225.907406,47.2149533 C241.517062,47.2149533 253.628425,51.3987121 262.241861,59.7663551 C270.855297,68.1339982 273.790853,79.3141267 271.048616,93.3070761 C269.290772,101.885668 265.93334,108.934774 260.97622,114.454606 C256.0191,119.974438 249.286658,124.457037 240.778693,127.902537 C248.653834,130.71519 254.015178,135.285683 256.862885,141.614152 C259.710593,147.942622 260.255516,155.501514 258.497672,164.291055 L256.59921,173.99466 C255.755445,178.143323 255.386303,182.748973 255.491774,187.811749 C255.597245,192.874525 256.810139,196.495761 259.130493,198.675567 L258.708613,200.785047 L222.426892,200.785047 C220.247166,198.605241 219.297944,194.825795 219.579199,189.446595 C219.860454,184.067396 220.493269,178.846487 221.477661,173.783712 L223.376123,164.502003 C224.923026,156.69689 224.430837,150.983774 221.899542,147.362483 C219.368246,143.741192 214.762764,141.930574 208.082956,141.930574 L186.672523,141.930574 Z M192.156969,114.507343 L212.829112,114.507343 C218.383899,114.507343 223.253054,112.837355 227.436723,109.49733 C231.620392,106.157304 234.309853,101.498917 235.505187,95.5220294 C236.770835,88.8419782 236.120442,83.6913844 233.55399,80.0700935 C230.987537,76.4488025 226.610571,74.6381842 220.42296,74.6381842 L200.172698,74.6381842 L192.156969,114.507343 Z M356.584881,162.497997 C357.780215,156.099211 356.901306,151.440825 353.948128,148.522697 C350.99495,145.604569 345.053526,142.141542 336.123678,138.133511 C319.318689,132.156623 306.890918,125.054781 298.839992,116.82777 C290.789066,108.60076 288.029292,98.2292571 290.560588,85.7129506 C293.162197,72.7747462 299.964951,62.7548197 310.969055,55.6528705 C321.973159,48.5509213 335.139214,45 350.467614,45 C366.428838,45 378.926922,49.2189164 387.96224,57.6568758 C396.997559,66.0948352 399.933115,77.5562249 396.768995,92.0413885 L396.452585,92.6742323 L362.174797,92.6742323 C363.370131,86.4863954 362.350597,81.5643262 359.116164,77.9078772 C355.88173,74.2514281 351.170779,72.423231 344.983168,72.423231 C340.623715,72.423231 336.545578,73.7064847 332.748634,76.2730307 C328.951691,78.8395767 326.701685,81.9158699 325.998547,85.5020027 C324.803213,91.3382579 325.89306,95.6099108 329.268121,98.3170895 C332.643181,101.024268 340.166641,104.698241 351.838726,109.339119 C367.026498,114.753476 378.135906,121.591636 385.167282,129.853805 C392.198659,138.115974 394.378353,148.926947 391.70643,162.287049 C388.964193,175.787784 382.214173,185.948342 371.456167,192.769025 C360.698162,199.589709 347.514529,203 331.904873,203 C316.435846,203 303.304947,199.150239 292.511785,191.450601 C281.718622,183.750963 278.115096,171.920418 281.701098,155.958611 L281.912038,155.325768 L316.189826,155.325768 C314.57261,163.060564 315.996442,168.369367 320.461366,171.252336 C324.92629,174.135306 330.568885,175.576769 337.38932,175.576769 C341.608145,175.576769 345.668704,174.328673 349.571118,171.832443 C353.473532,169.336214 355.811429,166.224763 356.584881,162.497997 L356.584881,162.497997 Z" id="CRS-Copy" fill="#FFFFFF"></path>
        <polygon id="Path-2" fill="#FFFFFF" transform="translate(443.501961, 45.366798) rotate(327.000000) translate(-443.501961, -45.366798) " points="394.819392 -16.460065 433.765448 45.5290736 394.819392 107.193662 492.184531 45.5290736"></polygon>
    </g>
</svg>